<svg xmlns="http://www.w3.org/2000/svg" viewBox="0 0 1359.94 466.97">
  <g>
    <line y1="31.63" x2="0.5" y2="31.63" style="fill: none;stroke: #fff;stroke-miterlimit: 10"/>
    <line x1="30.41" y1="31.63" x2="1344.48" y2="31.63" style="fill: none;stroke: #fff;stroke-miterlimit: 10;stroke-dasharray: 0.9970210790634155,29.910633087158203"/>
    <line x1="1359.44" y1="31.63" x2="1359.94" y2="31.63" style="fill: none;stroke: #fff;stroke-miterlimit: 10"/>
  </g>
  <g>
    <line y1="62.76" x2="0.5" y2="62.76" style="fill: none;stroke: #fff;stroke-miterlimit: 10"/>
    <line x1="30.41" y1="62.76" x2="1344.48" y2="62.76" style="fill: none;stroke: #fff;stroke-miterlimit: 10;stroke-dasharray: 0.9970210790634155,29.910633087158203"/>
    <line x1="1359.44" y1="62.76" x2="1359.94" y2="62.76" style="fill: none;stroke: #fff;stroke-miterlimit: 10"/>
  </g>
  <g>
    <line y1="0.5" x2="0.5" y2="0.5" style="fill: none;stroke: #fff;stroke-miterlimit: 10"/>
    <line x1="30.41" y1="0.5" x2="1344.48" y2="0.5" style="fill: none;stroke: #fff;stroke-miterlimit: 10;stroke-dasharray: 0.9970210790634155,29.910633087158203"/>
    <line x1="1359.44" y1="0.5" x2="1359.94" y2="0.5" style="fill: none;stroke: #fff;stroke-miterlimit: 10"/>
  </g>
  <g>
    <line y1="93.89" x2="0.5" y2="93.89" style="fill: none;stroke: #fff;stroke-miterlimit: 10"/>
    <line x1="30.41" y1="93.89" x2="1344.48" y2="93.89" style="fill: none;stroke: #fff;stroke-miterlimit: 10;stroke-dasharray: 0.9970210790634155,29.910633087158203"/>
    <line x1="1359.44" y1="93.89" x2="1359.94" y2="93.89" style="fill: none;stroke: #fff;stroke-miterlimit: 10"/>
  </g>
  <g>
    <line y1="125.02" x2="0.5" y2="125.02" style="fill: none;stroke: #fff;stroke-miterlimit: 10"/>
    <line x1="30.41" y1="125.02" x2="1344.48" y2="125.02" style="fill: none;stroke: #fff;stroke-miterlimit: 10;stroke-dasharray: 0.9970210790634155,29.910633087158203"/>
    <line x1="1359.44" y1="125.02" x2="1359.94" y2="125.02" style="fill: none;stroke: #fff;stroke-miterlimit: 10"/>
  </g>
  <g>
    <line y1="156.16" x2="0.5" y2="156.16" style="fill: none;stroke: #fff;stroke-miterlimit: 10"/>
    <line x1="30.41" y1="156.16" x2="1344.48" y2="156.16" style="fill: none;stroke: #fff;stroke-miterlimit: 10;stroke-dasharray: 0.9970210790634155,29.910633087158203"/>
    <line x1="1359.44" y1="156.16" x2="1359.94" y2="156.16" style="fill: none;stroke: #fff;stroke-miterlimit: 10"/>
  </g>
  <g>
    <line y1="187.29" x2="0.5" y2="187.29" style="fill: none;stroke: #fff;stroke-miterlimit: 10"/>
    <line x1="30.41" y1="187.29" x2="1344.48" y2="187.29" style="fill: none;stroke: #fff;stroke-miterlimit: 10;stroke-dasharray: 0.9970210790634155,29.910633087158203"/>
    <line x1="1359.44" y1="187.29" x2="1359.94" y2="187.29" style="fill: none;stroke: #fff;stroke-miterlimit: 10"/>
  </g>
  <g>
    <line y1="218.42" x2="0.5" y2="218.42" style="fill: none;stroke: #fff;stroke-miterlimit: 10"/>
    <line x1="30.41" y1="218.42" x2="1344.48" y2="218.42" style="fill: none;stroke: #fff;stroke-miterlimit: 10;stroke-dasharray: 0.9970210790634155,29.910633087158203"/>
    <line x1="1359.44" y1="218.42" x2="1359.94" y2="218.42" style="fill: none;stroke: #fff;stroke-miterlimit: 10"/>
  </g>
  <g>
    <line y1="249.55" x2="0.5" y2="249.55" style="fill: none;stroke: #fff;stroke-miterlimit: 10"/>
    <line x1="30.41" y1="249.55" x2="1344.48" y2="249.55" style="fill: none;stroke: #fff;stroke-miterlimit: 10;stroke-dasharray: 0.9970210790634155,29.910633087158203"/>
    <line x1="1359.44" y1="249.55" x2="1359.94" y2="249.55" style="fill: none;stroke: #fff;stroke-miterlimit: 10"/>
  </g>
  <g>
    <line y1="280.68" x2="0.5" y2="280.68" style="fill: none;stroke: #fff;stroke-miterlimit: 10"/>
    <line x1="30.41" y1="280.68" x2="1344.48" y2="280.68" style="fill: none;stroke: #fff;stroke-miterlimit: 10;stroke-dasharray: 0.9970210790634155,29.910633087158203"/>
    <line x1="1359.44" y1="280.68" x2="1359.94" y2="280.68" style="fill: none;stroke: #fff;stroke-miterlimit: 10"/>
  </g>
  <g>
    <line y1="311.81" x2="0.5" y2="311.81" style="fill: none;stroke: #fff;stroke-miterlimit: 10"/>
    <line x1="30.41" y1="311.81" x2="1344.48" y2="311.81" style="fill: none;stroke: #fff;stroke-miterlimit: 10;stroke-dasharray: 0.9970210790634155,29.910633087158203"/>
    <line x1="1359.44" y1="311.81" x2="1359.94" y2="311.81" style="fill: none;stroke: #fff;stroke-miterlimit: 10"/>
  </g>
  <g>
    <line y1="342.94" x2="0.5" y2="342.94" style="fill: none;stroke: #fff;stroke-miterlimit: 10"/>
    <line x1="30.41" y1="342.94" x2="1344.48" y2="342.94" style="fill: none;stroke: #fff;stroke-miterlimit: 10;stroke-dasharray: 0.9970210790634155,29.910633087158203"/>
    <line x1="1359.44" y1="342.94" x2="1359.94" y2="342.94" style="fill: none;stroke: #fff;stroke-miterlimit: 10"/>
  </g>
  <g>
    <line y1="374.08" x2="0.5" y2="374.08" style="fill: none;stroke: #fff;stroke-miterlimit: 10"/>
    <line x1="30.41" y1="374.08" x2="1344.48" y2="374.08" style="fill: none;stroke: #fff;stroke-miterlimit: 10;stroke-dasharray: 0.9970210790634155,29.910633087158203"/>
    <line x1="1359.44" y1="374.08" x2="1359.94" y2="374.08" style="fill: none;stroke: #fff;stroke-miterlimit: 10"/>
  </g>
  <g>
    <line y1="405.21" x2="0.5" y2="405.21" style="fill: none;stroke: #fff;stroke-miterlimit: 10"/>
    <line x1="30.41" y1="405.21" x2="1344.48" y2="405.21" style="fill: none;stroke: #fff;stroke-miterlimit: 10;stroke-dasharray: 0.9970210790634155,29.910633087158203"/>
    <line x1="1359.44" y1="405.21" x2="1359.94" y2="405.21" style="fill: none;stroke: #fff;stroke-miterlimit: 10"/>
  </g>
  <g>
    <line y1="436.34" x2="0.5" y2="436.34" style="fill: none;stroke: #fff;stroke-miterlimit: 10"/>
    <line x1="30.41" y1="436.34" x2="1344.48" y2="436.34" style="fill: none;stroke: #fff;stroke-miterlimit: 10;stroke-dasharray: 0.9970210790634155,29.910633087158203"/>
    <line x1="1359.44" y1="436.34" x2="1359.94" y2="436.34" style="fill: none;stroke: #fff;stroke-miterlimit: 10"/>
  </g>
  <g>
    <line y1="467.47" x2="0.5" y2="467.47" style="fill: none;stroke: #fff;stroke-miterlimit: 10"/>
    <line x1="30.41" y1="467.47" x2="1344.48" y2="467.47" style="fill: none;stroke: #fff;stroke-miterlimit: 10;stroke-dasharray: 0.9970210790634155,29.910633087158203"/>
    <line x1="1359.44" y1="467.47" x2="1359.94" y2="467.47" style="fill: none;stroke: #fff;stroke-miterlimit: 10"/>
  </g>
</svg>
