<svg xmlns="http://www.w3.org/2000/svg" viewBox="0 0 127.7 127.7">
  <path d="M103,63.85a28.94,28.94,0,0,1,24.7-28.61V24.35A28.93,28.93,0,0,1,103.35,0H92.46A28.94,28.94,0,0,1,63.85,24.69,28.94,28.94,0,0,1,35.24,0H24.35A28.93,28.93,0,0,1,0,24.35V35.24A28.94,28.94,0,0,1,24.69,63.85,28.94,28.94,0,0,1,0,92.46v10.89A28.93,28.93,0,0,1,24.35,127.7H35.24a28.92,28.92,0,0,1,57.22,0h10.89a28.93,28.93,0,0,1,24.35-24.35V92.46A28.94,28.94,0,0,1,103,63.85Zm-39.15,29a29,29,0,1,1,29-29A29,29,0,0,1,63.85,92.81Z" style="fill: #f14e1b"/>
</svg>
